<svg xmlns="http://www.w3.org/2000/svg" width="32" height="32" viewBox="0 0 32 32" fill="none">
  <path d="M24 4.00001V4.00001C24.93 4.00001 25.395 4.00001 25.7765 4.10223C26.8117 4.37963 27.6204 5.18828 27.8978 6.22356C28 6.60505 28 7.07004 28 8.00001L28 11C28 11.4714 28 11.7071 27.8536 11.8536C27.7071 12 27.4714 12 27 12L20 12M24 4.00001V4.00001C23.07 4.00001 22.605 4.00001 22.2235 4.10223C21.1883 4.37963 20.3796 5.18828 20.1022 6.22355C20 6.60505 20 7.07004 20 8.00001L20 12M24 4.00001L8 4.00001C6.11438 4.00001 5.17157 4.00001 4.58579 4.5858C4 5.17158 4 6.11439 4 8.00001L4 28L8 26.6667L12 28L16 26.6667L20 28L20 12" stroke="white"/>
  <path d="M9.33337 9.33334L14.6667 9.33334" stroke="white" stroke-linecap="round"/>
  <path d="M10.6666 14.6667H9.33329" stroke="white" stroke-linecap="round"/>
  <path d="M9.33337 20L13.3334 20" stroke="white" stroke-linecap="round"/>
</svg>