<svg xmlns="http://www.w3.org/2000/svg" width="32" height="32" viewBox="0 0 32 32" fill="none">
  <path d="M24.6667 12.6667V10.5333C24.6667 9.41323 24.6667 8.85317 24.4487 8.42535C24.2569 8.04903 23.951 7.74307 23.5746 7.55132C23.1468 7.33333 22.5868 7.33333 21.4667 7.33333H9.2C8.0799 7.33333 7.51984 7.33333 7.09202 7.55132C6.71569 7.74307 6.40973 8.04903 6.21799 8.42535C6 8.85317 6 9.41323 6 10.5333V17.4667C6 18.5868 6 19.1468 6.21799 19.5746C6.40973 19.951 6.71569 20.2569 7.09202 20.4487C7.51984 20.6667 8.07989 20.6667 9.2 20.6667H18" stroke="white" stroke-linecap="round"/>
  <path d="M10 16.6667H15.3333" stroke="white" stroke-linecap="round"/>
  <path d="M10 11.3333H19.3333" stroke="white" stroke-linecap="round"/>
  <circle cx="23.3333" cy="18" r="2.83333" stroke="white"/>
  <path d="M26 24.6667C26 24.6667 25.3333 23.3333 23.3333 23.3333C21.3333 23.3333 20.6666 24.6667 20.6666 24.6667" stroke="white" stroke-linecap="round"/>
</svg>