<svg xmlns="http://www.w3.org/2000/svg" width="32" height="32" viewBox="0 0 32 32" fill="none">
  <path d="M23.5 23.0823V4.91771C23.5 4.29484 22.8196 3.9109 22.2864 4.2329L19.8629 5.69654C19.5878 5.86266 19.24 5.84808 18.9798 5.65951L16.4694 3.84021C16.1894 3.63725 15.8106 3.63725 15.5306 3.84021L13.0202 5.65951C12.76 5.84808 12.4122 5.86266 12.1371 5.69654L9.71357 4.2329C9.18039 3.9109 8.5 4.29484 8.5 4.91771V23.0823C8.5 23.7052 9.18039 24.0891 9.71357 23.7671L12.1371 22.3035C12.4122 22.1373 12.76 22.1519 13.0202 22.3405L15.5306 24.1598C15.8106 24.3627 16.1894 24.3627 16.4694 24.1598L18.9798 22.3405C19.24 22.1519 19.5878 22.1373 19.8629 22.3035L22.2864 23.7671C22.8196 24.0891 23.5 23.7052 23.5 23.0823Z" stroke="white"/>
  <path d="M11.5 9.5H16.5" stroke="white" stroke-linecap="round"/>
  <path d="M11.5 12H20.5" stroke="white" stroke-linecap="round"/>
  <path d="M11.5 14.5H16.5" stroke="white" stroke-linecap="round"/>
</svg>