<svg width="32" height="32" viewBox="0 0 32 32" fill="none" xmlns="http://www.w3.org/2000/svg">
<path d="M27.3333 20.6667H23.4415C22.7458 20.6667 22.3979 20.6667 22.136 20.8554C21.8741 21.0442 21.7641 21.3742 21.5441 22.0342L21.1225 23.2991C20.9025 23.9591 20.7925 24.2892 20.5306 24.4779C20.2687 24.6667 19.9208 24.6667 19.2251 24.6667H12.7748C12.0791 24.6667 11.7312 24.6667 11.4693 24.4779C11.2075 24.2892 11.0975 23.9591 10.8774 23.2991L10.4558 22.0342C10.2358 21.3742 10.1258 21.0442 9.86391 20.8554C9.60202 20.6667 9.25416 20.6667 8.55844 20.6667H4.66663M21.5555 22H10.4444" stroke="white"/>
<path d="M27.3333 15.3333H23.4415C22.7458 15.3333 22.3979 15.3333 22.136 15.5221C21.8741 15.7108 21.7641 16.0409 21.5441 16.7009L21.1225 17.9658C20.9025 18.6258 20.7925 18.9558 20.5306 19.1446C20.2687 19.3333 19.9208 19.3333 19.2251 19.3333H12.7748C12.0791 19.3333 11.7312 19.3333 11.4693 19.1446C11.2075 18.9558 11.0975 18.6258 10.8774 17.9658L10.4558 16.7009C10.2358 16.0409 10.1258 15.7108 9.86391 15.5221C9.60202 15.3333 9.25416 15.3333 8.55844 15.3333H4.66663M21.5555 16.6667H10.4444" stroke="white"/>
<path d="M23.3333 16V7.32941C23.3333 7.08482 23.3333 6.96253 23.3057 6.84744C23.2812 6.7454 23.2408 6.64786 23.1859 6.55839C23.1241 6.45747 23.0376 6.37099 22.8647 6.19804L19.8019 3.1353C19.629 2.96235 19.5425 2.87587 19.4416 2.81403C19.3521 2.7592 19.2546 2.7188 19.1525 2.6943C19.0374 2.66667 18.9151 2.66667 18.6706 2.66667H11.0666C10.2265 2.66667 9.80651 2.66667 9.48564 2.83016C9.2034 2.97397 8.97393 3.20344 8.83012 3.48569C8.66663 3.80655 8.66663 4.22659 8.66663 5.06667V16" stroke="white"/>
<path d="M18 2.66667L18 6.4C18 6.96005 18 7.24008 18.109 7.45399C18.2049 7.64215 18.3578 7.79513 18.546 7.89101C18.7599 8 19.0399 8 19.6 8L23.3333 8" stroke="white"/>
<path d="M8.66663 8.66667L5.51016 11.8231C5.19885 12.1345 5.04319 12.2901 4.93187 12.4718C4.83318 12.6328 4.76045 12.8084 4.71636 12.9921C4.66663 13.1992 4.66663 13.4193 4.66663 13.8596V25.7867C4.66663 26.7948 4.66663 27.2988 4.86281 27.6839C5.03539 28.0225 5.31075 28.2979 5.64944 28.4705C6.03448 28.6667 6.53853 28.6667 7.54662 28.6667H24.4533C25.4614 28.6667 25.9654 28.6667 26.3505 28.4705C26.6892 28.2979 26.9645 28.0225 27.1371 27.6839C27.3333 27.2988 27.3333 26.7948 27.3333 25.7867V13.8596C27.3333 13.4193 27.3333 13.1992 27.2836 12.9921C27.2395 12.8084 27.1667 12.6328 27.068 12.4718C26.9567 12.2901 26.8011 12.1345 26.4898 11.8231L23.3333 8.66667" stroke="white"/>
</svg>
